<?xml version="1.0" encoding="UTF-8"?>
<svg version="1.1" xmlns="http://www.w3.org/2000/svg" width="450" height="450">
<path d="M0 0 C3.3175096 -0.00434513 6.6336546 -0.04069033 9.95092773 -0.07861328 C28.73411983 -0.17828109 46.78597892 2.27285309 64.85522461 7.49560547 C65.8783374 7.78854492 66.9014502 8.08148438 67.95556641 8.38330078 C97.57411068 17.19108165 125.05330495 32.16056586 148.41772461 52.37060547 C149.18729492 53.02931641 149.95686523 53.68802734 150.74975586 54.36669922 C163.14315351 65.2391824 174.98142278 76.80661137 184.41772461 90.37060547 C184.89161621 91.04849121 185.36550781 91.72637695 185.85375977 92.42480469 C209.79658483 126.9286062 227.0459368 167.78024625 227.41772461 210.37060547 C227.4314209 211.41651855 227.44511719 212.46243164 227.45922852 213.54003906 C227.55513094 221.81884503 227.52613208 230.09210058 227.41772461 238.37060547 C227.41047363 239.20124512 227.40322266 240.03188477 227.39575195 240.88769531 C226.76387336 288.74982092 203.7538837 337.12377498 172.41772461 372.37060547 C171.81831055 373.07958984 171.21889648 373.78857422 170.60131836 374.51904297 C138.94011059 411.90215576 93.0294921 435.91060278 45.41772461 445.37060547 C44.57117813 445.53906479 43.72463165 445.70752411 42.85243225 445.88108826 C35.12528302 447.30636543 27.62819406 447.70645275 19.78100586 447.74169922 C18.50331833 447.75072769 17.2256308 447.75975616 15.90922546 447.76905823 C13.21403509 447.78542294 10.51896686 447.79322313 7.82373047 447.79614258 C5.11759584 447.80041271 2.41243053 447.82102207 -0.29345703 447.85766602 C-47.58389947 448.45027808 -92.57962987 433.68592186 -130.58227539 405.37060547 C-131.2098877 404.90525391 -131.8375 404.43990234 -132.48413086 403.96044922 C-150.91016294 390.10671549 -167.49230904 373.35420447 -180.58227539 354.37060547 C-181.1988501 353.48115234 -181.1988501 353.48115234 -181.82788086 352.57373047 C-184.55686775 348.5896115 -187.10597512 344.51566914 -189.58227539 340.37060547 C-190.17105469 339.39631592 -190.17105469 339.39631592 -190.77172852 338.40234375 C-221.07025147 287.78076241 -229.03233997 226.12220941 -215.07836914 168.99951172 C-205.6181321 132.51444646 -187.99916129 100.42350559 -162.63696289 72.64794922 C-160.87661741 70.69684387 -159.19043216 68.71047003 -157.51977539 66.68310547 C-154.82861329 63.51877201 -151.84677936 60.84503593 -148.67993164 58.16357422 C-147.32843996 57.00838859 -146.00034057 55.82496596 -144.70336914 54.60888672 C-114.90143001 26.78985547 -75.30747569 9.68625815 -35.58227539 2.37060547 C-34.63054443 2.1851416 -33.67881348 1.99967773 -32.69824219 1.80859375 C-21.84857037 -0.04389001 -10.97949943 -0.00160226 0 0 Z " fill="#81017D" transform="translate(221.582275390625,0.62939453125)"/>
<path d="M0 0 C3.3175096 -0.00434513 6.6336546 -0.04069033 9.95092773 -0.07861328 C28.73411983 -0.17828109 46.78597892 2.27285309 64.85522461 7.49560547 C65.8783374 7.78854492 66.9014502 8.08148438 67.95556641 8.38330078 C97.57411068 17.19108165 125.05330495 32.16056586 148.41772461 52.37060547 C149.18729492 53.02931641 149.95686523 53.68802734 150.74975586 54.36669922 C163.14315351 65.2391824 174.98142278 76.80661137 184.41772461 90.37060547 C184.89161621 91.04849121 185.36550781 91.72637695 185.85375977 92.42480469 C209.79658483 126.9286062 227.0459368 167.78024625 227.41772461 210.37060547 C227.4314209 211.41651855 227.44511719 212.46243164 227.45922852 213.54003906 C227.55513094 221.81884503 227.52613208 230.09210058 227.41772461 238.37060547 C227.41047363 239.20124512 227.40322266 240.03188477 227.39575195 240.88769531 C226.76387336 288.74982092 203.7538837 337.12377498 172.41772461 372.37060547 C171.81831055 373.07958984 171.21889648 373.78857422 170.60131836 374.51904297 C138.94011059 411.90215576 93.0294921 435.91060278 45.41772461 445.37060547 C44.57117813 445.53906479 43.72463165 445.70752411 42.85243225 445.88108826 C35.12528302 447.30636543 27.62819406 447.70645275 19.78100586 447.74169922 C18.50331833 447.75072769 17.2256308 447.75975616 15.90922546 447.76905823 C13.21403509 447.78542294 10.51896686 447.79322313 7.82373047 447.79614258 C5.11759584 447.80041271 2.41243053 447.82102207 -0.29345703 447.85766602 C-47.58389947 448.45027808 -92.57962987 433.68592186 -130.58227539 405.37060547 C-131.2098877 404.90525391 -131.8375 404.43990234 -132.48413086 403.96044922 C-150.91016294 390.10671549 -167.49230904 373.35420447 -180.58227539 354.37060547 C-181.1988501 353.48115234 -181.1988501 353.48115234 -181.82788086 352.57373047 C-184.55686775 348.5896115 -187.10597512 344.51566914 -189.58227539 340.37060547 C-190.17105469 339.39631592 -190.17105469 339.39631592 -190.77172852 338.40234375 C-221.07025147 287.78076241 -229.03233997 226.12220941 -215.07836914 168.99951172 C-205.6181321 132.51444646 -187.99916129 100.42350559 -162.63696289 72.64794922 C-160.87661741 70.69684387 -159.19043216 68.71047003 -157.51977539 66.68310547 C-154.82861329 63.51877201 -151.84677936 60.84503593 -148.67993164 58.16357422 C-147.32843996 57.00838859 -146.00034057 55.82496596 -144.70336914 54.60888672 C-114.90143001 26.78985547 -75.30747569 9.68625815 -35.58227539 2.37060547 C-34.63054443 2.1851416 -33.67881348 1.99967773 -32.69824219 1.80859375 C-21.84857037 -0.04389001 -10.97949943 -0.00160226 0 0 Z M-42.58227539 15.37060547 C-43.69086914 15.59748047 -44.79946289 15.82435547 -45.94165039 16.05810547 C-48.87386484 16.70610866 -51.70767998 17.50104036 -54.58227539 18.37060547 C-55.28223633 18.57459961 -55.98219727 18.77859375 -56.70336914 18.98876953 C-90.42525694 28.94198683 -120.38626051 46.97171348 -145.58227539 71.37060547 C-146.34580322 72.1034375 -146.34580322 72.1034375 -147.12475586 72.85107422 C-153.81299533 79.28899603 -160.03350554 85.90657975 -165.58227539 93.37060547 C-166.34926758 94.39412109 -167.11625977 95.41763672 -167.90649414 96.47216797 C-179.19388752 111.76693319 -188.41263809 127.7552352 -195.58227539 145.37060547 C-195.86941406 146.07475586 -196.15655273 146.77890625 -196.45239258 147.50439453 C-200.03263363 156.483069 -202.54339102 165.674029 -204.83227539 175.05810547 C-205.07872803 176.06703857 -205.32518066 177.07597168 -205.57910156 178.11547852 C-208.88209834 192.22371607 -209.93120321 205.68979332 -209.89794922 220.12695312 C-209.8948034 222.97028517 -209.91828362 225.81255841 -209.94360352 228.65576172 C-210.01037678 247.87699685 -207.07420553 265.97723143 -201.58227539 284.37060547 C-201.21126709 285.62526611 -201.21126709 285.62526611 -200.83276367 286.90527344 C-193.07715152 312.69402269 -180.76465381 336.59028913 -163.58227539 357.37060547 C-163.11708496 357.93730957 -162.65189453 358.50401367 -162.17260742 359.08789062 C-152.03010324 371.3788571 -141.24172578 382.6377123 -128.58227539 392.37060547 C-128.0323291 392.79696289 -127.48238281 393.22332031 -126.91577148 393.66259766 C-105.6061142 410.09285798 -82.30084283 421.59064569 -56.58227539 429.37060547 C-54.6931543 429.95455078 -54.6931543 429.95455078 -52.76586914 430.55029297 C-49.06192329 431.61802261 -45.3420105 432.52838975 -41.58227539 433.37060547 C-40.81367188 433.55252441 -40.04506836 433.73444336 -39.25317383 433.921875 C-11.48630928 440.28041173 19.7137355 439.65748516 47.41772461 433.37060547 C48.36244629 433.16693359 49.30716797 432.96326172 50.28051758 432.75341797 C79.53617466 426.33253201 107.7462446 413.81908795 131.41772461 395.37060547 C132.36518555 394.63326172 133.31264648 393.89591797 134.28881836 393.13623047 C141.29104119 387.53445221 147.89085211 381.51243945 154.41772461 375.37060547 C155.07643555 374.75443359 155.73514648 374.13826172 156.41381836 373.50341797 C161.56342754 368.53220171 165.97455785 362.97001366 170.41772461 357.37060547 C171.2362793 356.35740234 172.05483398 355.34419922 172.89819336 354.30029297 C201.07732831 318.99565138 217.20458611 271.57728113 216.85522461 226.49560547 C216.85218323 225.65498566 216.84914185 224.81436584 216.8460083 223.94827271 C216.5188967 162.32262733 191.23756095 109.87702279 148.04760742 66.94458008 C136.38380155 55.68086581 122.44583976 45.99930571 108.19458008 38.33105469 C106.36447524 37.34182242 104.54914604 36.32863032 102.73413086 35.31201172 C86.77863834 26.46197629 70.06475927 20.86055391 52.41772461 16.37060547 C51.38615234 16.10795898 50.35458008 15.8453125 49.29174805 15.57470703 C19.96255665 8.46875701 -13.20733826 8.4493874 -42.58227539 15.37060547 Z " fill="#7F0379" transform="translate(221.582275390625,0.62939453125)"/>
<path d="M0 0 C1.07282227 0.27295898 2.14564453 0.54591797 3.25097656 0.82714844 C58.84043141 15.37875086 106.33200714 50.69730148 135.90234375 100.18359375 C144.27298713 115.09699698 150.90107879 130.6951402 156 147 C156.38671875 148.1859375 156.7734375 149.371875 157.171875 150.59375 C172.8561529 203.19640511 164.3932876 262.42088759 138.72485352 310.33032227 C130.95827575 324.32740215 121.60344 337.04158847 111 349 C110.20464844 349.90621094 109.40929687 350.81242187 108.58984375 351.74609375 C100.66481486 360.67704397 92.41992336 368.64553512 83 376 C82.46552246 376.42152344 81.93104492 376.84304688 81.38037109 377.27734375 C54.84289129 398.05720014 23.76604995 410.87612409 -9 418 C-9.75829102 418.16806152 -10.51658203 418.33612305 -11.29785156 418.50927734 C-37.55197743 424.02893561 -68.00203077 423.15794248 -94 417 C-94.83144531 416.81276367 -95.66289062 416.62552734 -96.51953125 416.43261719 C-143.70330576 405.67694575 -187.39307121 378.437961 -217 340 C-217.62358398 339.20698486 -217.62358398 339.20698486 -218.25976562 338.39794922 C-237.68993965 313.59209371 -249.96641566 285.03595298 -257.8125 254.6875 C-258.10483521 253.57979248 -258.10483521 253.57979248 -258.40307617 252.44970703 C-261.85357591 238.43176671 -262.34889615 224.34233733 -262.31567383 209.98291016 C-262.3125115 207.13535284 -262.33608408 204.28883644 -262.36132812 201.44140625 C-262.40227737 189.64719494 -261.36733725 178.54975828 -259 167 C-258.80124268 165.98969727 -258.60248535 164.97939453 -258.39770508 163.93847656 C-257.89039507 161.46749722 -257.33846031 159.0153084 -256.75 156.5625 C-256.54238037 155.69616943 -256.33476074 154.82983887 -256.12084961 153.93725586 C-253.80623328 144.67626644 -250.54031378 135.85181062 -247 127 C-246.53980469 125.80246094 -246.07960937 124.60492188 -245.60546875 123.37109375 C-239.30777895 107.70853958 -230.12992306 93.43658188 -220 80 C-219.40832031 79.195625 -218.81664062 78.39125 -218.20703125 77.5625 C-213.25400498 70.97415152 -207.65651813 64.97990984 -202 59 C-201.53996582 58.5059668 -201.07993164 58.01193359 -200.60595703 57.50292969 C-192.76440625 49.11609634 -184.12512041 42.14665249 -174.86962891 35.37011719 C-173.34449117 34.25245292 -171.83237532 33.1170371 -170.32421875 31.9765625 C-148.1760779 15.68103918 -121.59599352 5.16456777 -95 -1 C-93.7620166 -1.30067383 -93.7620166 -1.30067383 -92.49902344 -1.60742188 C-63.02078651 -8.52613081 -29.23741119 -7.44407689 0 0 Z M-185.5546875 53.70703125 C-187.65250304 55.67415221 -189.79480787 57.53138796 -192 59.375 C-205.80246647 71.43103194 -216.39751533 86.53553341 -226 102 C-226.52078125 102.79277344 -227.0415625 103.58554688 -227.578125 104.40234375 C-246.64402007 134.2058995 -255.47362519 171.81557008 -255.375 206.875 C-255.37478851 207.58078186 -255.37457703 208.28656372 -255.37435913 209.01373291 C-255.23692553 255.50276587 -238.57645647 302.12127057 -209 338 C-207.79537109 339.51787109 -207.79537109 339.51787109 -206.56640625 341.06640625 C-205.76074219 342.07574219 -204.95507812 343.08507812 -204.125 344.125 C-203.38507813 345.05570312 -202.64515625 345.98640625 -201.8828125 346.9453125 C-201.26148438 347.62335938 -200.64015625 348.30140625 -200 349 C-199.34 349 -198.68 349 -198 349 C-197.80019531 349.53625 -197.60039062 350.0725 -197.39453125 350.625 C-195.38880771 354.04091012 -192.61896903 356.37111324 -189.6875 359 C-189.11837891 359.52078125 -188.54925781 360.0415625 -187.96289062 360.578125 C-182.60485779 366.27104298 -182.60485779 366.27104298 -176 369 C-176 369.66 -176 370.32 -176 371 C-174.52060817 372.28880711 -174.52060817 372.28880711 -172.5546875 373.5390625 C-171.81484619 374.03301514 -171.07500488 374.52696777 -170.31274414 375.03588867 C-169.50828857 375.56029541 -168.70383301 376.08470215 -167.875 376.625 C-167.05185303 377.16552002 -166.22870605 377.70604004 -165.38061523 378.26293945 C-135.10734716 397.97829151 -100.03739892 413.03900151 -63.38671875 413.203125 C-62.37768997 413.20882507 -61.36866119 413.21452515 -60.32905579 413.22039795 C-58.19683872 413.22980831 -56.06460737 413.23636608 -53.93237305 413.24023438 C-50.73524106 413.24985632 -47.53877612 413.28088342 -44.34179688 413.3125 C-4.26387619 413.51999842 36.59593281 400.94877852 69 377 C70.04929687 376.23300781 71.09859375 375.46601563 72.1796875 374.67578125 C81.8132823 367.51237538 90.51988831 359.49405924 99 351 C99.5878125 350.45859375 100.175625 349.9171875 100.78125 349.359375 C133.46288192 318.75748329 154.56367681 268.47906889 156.21923828 224.17138672 C156.3655628 218.67672209 156.38705606 213.18383995 156.375 207.6875 C156.37412384 206.71334137 156.37324768 205.73918274 156.37234497 204.73550415 C156.27935209 173.37244806 149.93881632 145.20393886 136 117 C135.66355469 116.31470215 135.32710938 115.6294043 134.98046875 114.92333984 C125.87087529 96.58166337 113.75837905 80.18122202 99.9375 65.125 C99.37699951 64.51132568 98.81649902 63.89765137 98.23901367 63.26538086 C96.86917289 61.80195501 95.43949127 60.39497092 94 59 C93.34 59 92.68 59 92 59 C92 58.34 92 57.68 92 57 C89.02923703 54.23760717 85.80439908 51.78287667 82.61621094 49.27636719 C81.06920801 48.05465551 79.53808808 46.81291225 78.0078125 45.5703125 C63.68457665 34.16274807 48.02936736 25.61097935 31.37963867 18.07836914 C29.8321392 17.37709643 28.29020708 16.66335977 26.75512695 15.93530273 C21.08283113 13.29199407 15.35974759 11.52029396 9.3125 9.9375 C8.33990234 9.68000977 7.36730469 9.42251953 6.36523438 9.15722656 C3.57955175 8.42702603 0.79057407 7.71123998 -2 7 C-3.24394531 6.67644531 -4.48789062 6.35289063 -5.76953125 6.01953125 C-67.49273305 -8.68357728 -139.26232698 10.18141531 -185.5546875 53.70703125 Z " fill="#F9D705" transform="translate(274,17)"/>
<path d="M0 0 C5.94 0 11.88 0 18 0 C21.2021967 8.42059131 23.80486123 16.94991234 26.30273438 25.59667969 C27.55824845 29.92415889 28.83910615 34.24396629 30.125 38.5625 C30.36653809 39.38290771 30.60807617 40.20331543 30.85693359 41.04858398 C32.37032138 46.1248036 34.10528245 51.0535665 36 56 C37.3364547 60.15004353 38.26471719 63.63216645 38 68 C38.66 68 39.32 68 40 68 C39.83701416 66.96681641 39.67402832 65.93363281 39.50610352 64.86914062 C38.73113173 58.62835803 38.87685023 52.37236914 38.90234375 46.09375 C38.90421228 44.75996962 38.90563413 43.42618854 38.90663147 42.09240723 C38.9104224 38.60723933 38.92022285 35.1221141 38.93133545 31.63696289 C38.94162377 28.07048113 38.94614489 24.50399237 38.95117188 20.9375 C38.9618487 13.9583142 38.97941717 6.97916355 39 0 C44.61 0 50.22 0 56 0 C56 35.64 56 71.28 56 108 C50.06 108 44.12 108 38 108 C35.45926056 101.31879629 33.29823459 94.64120991 31.35986328 87.76269531 C29.81707427 82.44724232 28.06310405 77.22220141 26.234375 72 C25.98639664 71.29002365 25.73841827 70.5800473 25.48292542 69.84855652 C24.22104513 66.2422831 22.94706893 62.64081607 21.65795898 59.04418945 C21.18183266 57.69232435 20.70599079 56.34035903 20.23046875 54.98828125 C19.80145264 53.78727783 19.37243652 52.58627441 18.93041992 51.34887695 C18.01513412 48.05447251 17.81520543 45.3978252 18 42 C17.34 42 16.68 42 16 42 C16 63.78 16 85.56 16 108 C10.72 108 5.44 108 0 108 C0 72.36 0 36.72 0 0 Z " fill="#FCD502" transform="translate(158,228)"/>
<path d="M0 0 C7.59 0 15.18 0 23 0 C23.44730469 2.87460938 23.89460938 5.74921875 24.35546875 8.7109375 C28.14049966 33.291245 28.14049966 33.291245 32.625 57.75 C34.58829694 67.55021878 36.25799237 77.37819561 37.8125 87.25 C37.92386292 87.94766479 38.03522583 88.64532959 38.14996338 89.36413574 C38.46598127 91.35129208 38.77414963 93.33969182 39.08203125 95.328125 C39.34850464 97.04370605 39.34850464 97.04370605 39.62036133 98.79394531 C40 102 40 102 40 108 C34.39 108 28.78 108 23 108 C22.49639084 104.75052182 21.99697626 101.50049335 21.5 98.25 C21.35691406 97.32960938 21.21382813 96.40921875 21.06640625 95.4609375 C20.86337891 94.12675781 20.86337891 94.12675781 20.65625 92.765625 C20.53056641 91.94868164 20.40488281 91.13173828 20.27539062 90.29003906 C20 88 20 88 20 84 C11.585 84.495 11.585 84.495 3 85 C2.525625 87.68125 2.05125 90.3625 1.5625 93.125 C1.41498291 93.95789551 1.26746582 94.79079102 1.11547852 95.64892578 C0.99615967 96.3242334 0.87684082 96.99954102 0.75390625 97.6953125 C0.63345947 98.37609863 0.5130127 99.05688477 0.38891602 99.75830078 C-0.08731259 102.50326689 -0.54198924 105.25193545 -1 108 C-6.61 108 -12.22 108 -18 108 C-14.50875654 80.19255208 -9.47223672 52.60705767 -4.6875 25 C-4.51078766 23.97865967 -4.33407532 22.95731934 -4.15200806 21.9050293 C-3.64861799 18.99888646 -3.14305881 16.09313014 -2.63671875 13.1875 C-2.48592865 12.3162146 -2.33513855 11.4449292 -2.17977905 10.54724121 C-2.0388382 9.7414563 -1.89789734 8.93567139 -1.75268555 8.10546875 C-1.63088425 7.40574951 -1.50908295 6.70603027 -1.3835907 5.98510742 C-0.99510116 3.97464819 -0.49662807 1.98651227 0 0 Z " fill="#FCD503" transform="translate(325,228)"/>
<path d="M0 0 C5.28 0 10.56 0 16 0 C16.02505615 2.51318848 16.0501123 5.02637695 16.07592773 7.61572266 C16.15946071 15.92581122 16.24813896 24.23583916 16.33933926 32.54584694 C16.39446792 37.58344004 16.44787162 42.62103904 16.49731445 47.65869141 C16.54510661 52.52166033 16.59745436 57.38456096 16.65294075 62.24744797 C16.67329715 64.10133536 16.69202106 65.95524142 16.70907402 67.80916214 C16.73326722 70.40881332 16.76330066 73.00833711 16.79467773 75.60791016 C16.80331093 76.75374573 16.80331093 76.75374573 16.81211853 77.92272949 C16.8685495 82.04480258 17.20380785 85.95422568 18 90 C18.66 90 19.32 90 20 90 C20 90.66 20 91.32 20 92 C21.6045556 91.85851011 23.20863767 91.71164314 24.8125 91.5625 C25.70582031 91.48128906 26.59914063 91.40007812 27.51953125 91.31640625 C30.12743559 91.06510233 30.12743559 91.06510233 33 90 C33.33 60.3 33.66 30.6 34 0 C39.94 0 45.88 0 52 0 C52.0678716 11.33560218 52.12287147 22.67106862 52.15543652 34.00682831 C52.17106886 39.27090526 52.19226277 44.53483556 52.22631836 49.79882812 C52.25899844 54.88222183 52.2768713 59.96547477 52.28463173 65.04896545 C52.29015972 66.98497227 52.30095449 68.9209717 52.31719017 70.85691833 C52.33907941 73.5760034 52.34196213 76.29451239 52.34057617 79.01367188 C52.351362 79.80777466 52.36214783 80.60187744 52.3732605 81.42004395 C52.33096221 89.12731833 50.05120534 96.04216806 45 102 C36.8712061 107.7946494 30.01094212 110.16683829 20 109 C12.81101436 106.61395613 6.89389256 102.6605562 2.88238525 96.20010376 C-1.40447782 87.21151577 -0.49987766 77.48929718 -0.390625 67.7734375 C-0.3831538 65.81475403 -0.37746502 63.85606303 -0.37347412 61.89736938 C-0.35828701 56.77133116 -0.31906563 51.64575471 -0.2746582 46.51989746 C-0.23355532 41.27765141 -0.21543117 36.0353299 -0.1953125 30.79296875 C-0.15256392 20.52841152 -0.08227148 10.26431661 0 0 Z " fill="#FCD402" transform="translate(94,228)"/>
<path d="M0 0 C28 0 28 0 37 4 C37 4.66 37 5.32 37 6 C37.66 6 38.32 6 39 6 C44.02958885 12.50253986 44.49469329 19.07576037 44.5 27 C44.50580078 27.92506348 44.51160156 28.85012695 44.51757812 29.80322266 C44.38619746 37.22754388 43.61733631 44.66706238 38.9140625 50.65625 C38.15867187 51.2646875 37.40328125 51.873125 36.625 52.5 C35.87476563 53.1290625 35.12453125 53.758125 34.3515625 54.40625 C27.23919978 59.22658885 23.45555272 58 14 58 C14 69.55 14 81.1 14 93 C9.38 93 4.76 93 0 93 C0 62.31 0 31.62 0 0 Z " fill="#FDD803" transform="translate(225,126)"/>
<path d="M0 0 C4.62 0 9.24 0 14 0 C14 9.9 14 19.8 14 30 C14.66 30 15.32 30 16 30 C16.1043335 29.46536133 16.20866699 28.93072266 16.31616211 28.37988281 C17.18624342 25.35183831 18.52119955 22.73471158 19.94140625 19.921875 C20.52470703 18.76171875 21.10800781 17.6015625 21.70898438 16.40625 C22.32673603 15.18745596 22.94457569 13.96870652 23.5625 12.75 C24.18461306 11.51581056 24.80636193 10.28143748 25.42773438 9.046875 C26.94823823 6.02944098 28.47365289 3.01448246 30 0 C35.28 0 40.56 0 46 0 C46 0.66 46 1.32 46 2 C45.34 2 44.68 2 44 2 C43.75894531 2.98355469 43.51789063 3.96710938 43.26953125 4.98046875 C41.99768969 9.42353949 39.90798111 13.27961387 37.6875 17.3125 C36.88116549 18.8149191 36.0751742 20.31752245 35.26953125 21.8203125 C33.949004 24.26200079 32.61375379 26.69263927 31.26171875 29.1171875 C30.80410156 29.96539062 30.34648437 30.81359375 29.875 31.6875 C29.48054688 32.39261719 29.08609375 33.09773438 28.6796875 33.82421875 C26.89901058 39.52443166 30.21228947 45.45813351 32.375 50.6875 C32.71789062 51.533125 33.06078125 52.37875 33.4140625 53.25 C35.57533516 58.56947039 37.77617124 63.87240076 39.9765625 69.17578125 C40.47752441 70.38983643 40.97848633 71.6038916 41.49462891 72.85473633 C42.48776764 75.25962677 43.4873109 77.66188365 44.49365234 80.0612793 C44.94949707 81.16511963 45.4053418 82.26895996 45.875 83.40625 C46.28492188 84.38916016 46.69484375 85.37207031 47.1171875 86.38476562 C48 89 48 89 48 93 C42.72 93 37.44 93 32 93 C29.24306574 85.86440544 26.50578477 78.72232957 23.8125 71.5625 C23.43810791 70.57056641 23.43810791 70.57056641 23.05615234 69.55859375 C21.94033995 66.58510045 20.89622286 63.64190735 20.01171875 60.58984375 C19.67785156 59.73519531 19.34398437 58.88054687 19 58 C17.515 57.505 17.515 57.505 16 57 C14.82874626 60.7513465 14.77940135 64.49631612 14.68359375 68.390625 C14.66281265 69.09523865 14.64203156 69.79985229 14.62062073 70.52581787 C14.55546163 72.76711681 14.49639752 75.00852864 14.4375 77.25 C14.39428274 78.77344897 14.35066743 80.29688671 14.30664062 81.8203125 C14.19906885 85.54676119 14.0997465 89.2733008 14 93 C9.38 93 4.76 93 0 93 C0 62.31 0 31.62 0 0 Z " fill="#FCD602" transform="translate(142,126)"/>
<path d="M0 0 C0 0.66 0 1.32 0 2 C-0.66 2 -1.32 2 -2 2 C-2.433125 2.86625 -2.433125 2.86625 -2.875 3.75 C-4 6 -4 6 -5.125 7.75 C-6.46160487 11.18698395 -6.12238184 14.32854467 -6 18 C-5.34 18 -4.68 18 -4 18 C-3.8046875 19.98567708 -3.609375 21.97135417 -3.4140625 23.95703125 C-3.07334609 26.29988142 -3.07334609 26.29988142 -1 29 C-2.98 29.99 -2.98 29.99 -5 31 C-5.62005857 36.82855055 -4.23834343 40.01899588 -1.19140625 44.984375 C0 47 0 47 1 50 C1.99 50 2.98 50 4 50 C4 42.74 4 35.48 4 28 C6.97 28 9.94 28 13 28 C13 34.6 13 41.2 13 48 C17.76190732 45.14285561 20.15711463 43.11576923 22 38 C22.30478611 35.23273561 22.19625933 32.79669538 22 30 C20.68 29.67 19.36 29.34 18 29 C18.66 28.01 19.32 27.02 20 26 C20.24055468 23.94290404 20.24055468 23.94290404 20.125 21.8125 C20.08375 20.554375 20.0425 19.29625 20 18 C20.66 18 21.32 18 22 18 C22.57655126 9.96152728 22.57655126 9.96152728 19 3 C18.34 2.67 17.68 2.34 17 2 C17 1.34 17 0.68 17 0 C22.68533969 1.64243147 22.68533969 1.64243147 24.375 3.5625 C26.69262246 5.61270449 29.01528609 5.36136298 31.9921875 5.625 C35.0875806 6.20312789 36.85099941 7.78384314 39 10 C39 10.66 39 11.32 39 12 C35.7 12 32.4 12 29 12 C29.18828772 14.44480079 29.18828772 14.44480079 30 17 C30.64324219 17.25007813 31.28648437 17.50015625 31.94921875 17.7578125 C34 19 34 19 34.94140625 21.96875 C35.14636719 23.1340625 35.35132813 24.299375 35.5625 25.5 C36.12422296 28.95933097 36.12422296 28.95933097 37 32 C38.485 32.99 38.485 32.99 40 34 C39.505 28.06 39.505 28.06 39 22 C45.125 28.125 45.125 28.125 45.5625 33.0625 C45.68818359 34.44115234 45.68818359 34.44115234 45.81640625 35.84765625 C45.87699219 36.55792969 45.93757813 37.26820313 46 38 C49.11933785 31.76132431 45.88094297 24.19143729 44 18 C49.74681245 23.43617394 53.65215327 28.77520011 54.19140625 36.875 C54.28931815 42.20140748 54.07614809 46.07112935 52 51 C51.55747943 53.4320759 51.55747943 53.4320759 51.375 55.8125 C51.30023438 56.60269531 51.22546875 57.39289063 51.1484375 58.20703125 C51.09945312 58.79871094 51.05046875 59.39039063 51 60 C50.67 59.34 50.34 58.68 50 58 C48.97935959 58 47.95871918 58 46.90715027 58 C19.60476685 58 -7.69761658 58 -35 58 C-35.06058594 57.31292969 -35.12117188 56.62585938 -35.18359375 55.91796875 C-35.26738281 55.01691406 -35.35117187 54.11585938 -35.4375 53.1875 C-35.51871094 52.29417969 -35.59992188 51.40085938 -35.68359375 50.48046875 C-35.93489767 47.87256441 -35.93489767 47.87256441 -37 45 C-38.5024746 35.35343012 -35.06154619 27.96624508 -30 20 C-29.01 19.34 -28.02 18.68 -27 18 C-27.2165625 18.61746094 -27.433125 19.23492187 -27.65625 19.87109375 C-29.61744758 25.83640307 -30.30344498 30.72880367 -30 37 C-29.34 37.33 -28.68 37.66 -28 38 C-28.04640625 37.33613281 -28.0928125 36.67226562 -28.140625 35.98828125 C-28.43735763 28.72892938 -28.43735763 28.72892938 -26.125 24.875 C-24 23 -24 23 -22 23 C-22 26.3 -22 29.6 -22 33 C-21.34 33.33 -20.68 33.66 -20 34 C-19.89042969 33.18015625 -19.78085937 32.3603125 -19.66796875 31.515625 C-19.43013672 29.89914063 -19.43013672 29.89914063 -19.1875 28.25 C-19.03667969 27.18265625 -18.88585937 26.1153125 -18.73046875 25.015625 C-17.98204283 21.92586667 -17.19261351 20.27545785 -15 18 C-14.34 18 -13.68 18 -13 18 C-12.67 18.66 -12.34 19.32 -12 20 C-11.83322718 16.58343976 -11.83322718 16.58343976 -12 13 C-12.66 12.34 -13.32 11.68 -14 11 C-15.9931567 10.97624074 -15.9931567 10.97624074 -18.125 11.375 C-19.40375 11.58125 -20.6825 11.7875 -22 12 C-20.63016497 8.83884224 -20.0109362 8.0072908 -17 6 C-14.73828125 5.8046875 -14.73828125 5.8046875 -12.3125 5.875 C-11.10013672 5.90207031 -11.10013672 5.90207031 -9.86328125 5.9296875 C-8.94095703 5.96449219 -8.94095703 5.96449219 -8 6 C-7.731875 5.38125 -7.46375 4.7625 -7.1875 4.125 C-5.34286471 0.8240737 -3.74342643 0 0 0 Z " fill="#77186C" transform="translate(312,124)"/>
<path d="M0 0 C5.28 0 10.56 0 16 0 C16 30.36 16 60.72 16 92 C25.24 92 34.48 92 44 92 C44 97.28 44 102.56 44 108 C29.48 108 14.96 108 0 108 C0 72.36 0 36.72 0 0 Z " fill="#FED701" transform="translate(254,228)"/>
<path d="M0 0 C13.2 0 26.4 0 40 0 C40 4.62 40 9.24 40 14 C31.42 14 22.84 14 14 14 C14 22.25 14 30.5 14 39 C19.83378691 38.96047258 19.83378691 38.96047258 25.66748047 38.90991211 C26.39338379 38.90741455 27.11928711 38.90491699 27.8671875 38.90234375 C28.61081543 38.89710693 29.35444336 38.89187012 30.12060547 38.88647461 C32 39 32 39 34 40 C34 44.62 34 49.24 34 54 C27.4 54 20.8 54 14 54 C14 66.87 14 79.74 14 93 C9.38 93 4.76 93 0 93 C0 62.31 0 31.62 0 0 Z " fill="#FCD402" transform="translate(94,126)"/>
<path d="M0 0 C5.28 0 10.56 0 16 0 C16 35.64 16 71.28 16 108 C10.72 108 5.44 108 0 108 C0 72.36 0 36.72 0 0 Z " fill="#FDD601" transform="translate(226,228)"/>
<path d="M0 0 C1.90234375 0.59375 1.90234375 0.59375 4 2 C4.94140625 4.96875 4.94140625 4.96875 5.5625 8.5 C6.12422296 11.95933097 6.12422296 11.95933097 7 15 C7.99 15.66 8.98 16.32 10 17 C9.505 11.06 9.505 11.06 9 5 C15.125 11.125 15.125 11.125 15.5625 16.0625 C15.64628906 16.98160156 15.73007812 17.90070313 15.81640625 18.84765625 C15.87699219 19.55792969 15.93757813 20.26820313 16 21 C19.11933785 14.76132431 15.88094297 7.19143729 14 1 C19.74681245 6.43617394 23.65215327 11.77520011 24.19140625 19.875 C24.28931815 25.20140748 24.07614809 29.07112935 22 34 C21.55747943 36.4320759 21.55747943 36.4320759 21.375 38.8125 C21.30023438 39.60269531 21.22546875 40.39289063 21.1484375 41.20703125 C21.09945312 41.79871094 21.05046875 42.39039063 21 43 C20.67 42.34 20.34 41.68 20 41 C18.97935959 41 17.95871918 41 16.90715027 41 C-10.39523315 41 -37.69761658 41 -65 41 C-65.06058594 40.31292969 -65.12117188 39.62585938 -65.18359375 38.91796875 C-65.26738281 38.01691406 -65.35117187 37.11585938 -65.4375 36.1875 C-65.51871094 35.29417969 -65.59992188 34.40085938 -65.68359375 33.48046875 C-65.93489767 30.87256441 -65.93489767 30.87256441 -67 28 C-68.5024746 18.35343012 -65.06154619 10.96624508 -60 3 C-59.01 2.34 -58.02 1.68 -57 1 C-57.2165625 1.61746094 -57.433125 2.23492187 -57.65625 2.87109375 C-59.61744758 8.83640307 -60.30344498 13.72880367 -60 20 C-59.34 20.33 -58.68 20.66 -58 21 C-58.04640625 20.33613281 -58.0928125 19.67226562 -58.140625 18.98828125 C-58.43735763 11.72892938 -58.43735763 11.72892938 -56.125 7.875 C-54 6 -54 6 -52 6 C-52 9.3 -52 12.6 -52 16 C-51.34 16.33 -50.68 16.66 -50 17 C-49.83564453 15.77023438 -49.83564453 15.77023438 -49.66796875 14.515625 C-49.43013672 12.89914063 -49.43013672 12.89914063 -49.1875 11.25 C-49.03667969 10.18265625 -48.88585937 9.1153125 -48.73046875 8.015625 C-47.98204283 4.92586667 -47.19261351 3.27545785 -45 1 C-44.34 1 -43.68 1 -43 1 C-42.91867813 3.56314499 -42.85935825 6.12368418 -42.8125 8.6875 C-42.78736328 9.40873047 -42.76222656 10.12996094 -42.73632812 10.87304688 C-42.67304248 15.49289868 -43.00853081 18.42650856 -46 22 C-48.99943824 24.17243264 -52.11220111 26.02988091 -55.28515625 27.9375 C-58.20267525 30.15397487 -59.0286029 31.52469113 -60 35 C-59.5153125 34.72285156 -59.030625 34.44570312 -58.53125 34.16015625 C-53.56970063 31.4790113 -49.67234418 30.09003721 -44 30 C-40.55884923 31.14705026 -37.90123928 32.23671631 -35.12915039 34.58447266 C-32.47308696 36.35030866 -30.85307187 36.38682465 -27.68359375 36.3984375 C-26.67232422 36.40230469 -25.66105469 36.40617187 -24.61914062 36.41015625 C-23.56919922 36.39855469 -22.51925781 36.38695312 -21.4375 36.375 C-20.38369141 36.38660156 -19.32988281 36.39820313 -18.24414062 36.41015625 C-16.72916992 36.40435547 -16.72916992 36.40435547 -15.18359375 36.3984375 C-14.26118896 36.39505371 -13.33878418 36.39166992 -12.38842773 36.38818359 C-9.56642399 35.92953227 -8.79522348 35.15392849 -7 33 C-2.13677562 29.89293998 3.44324553 30.51094891 9 31 C11.88127714 31.759849 14.28134195 32.74523474 17 34 C14.74934008 29.49868015 12.1818113 27.50513216 7.9375 24.875 C2.20041465 21.30062198 2.20041465 21.30062198 0 18 C-0.22705078 16.00708008 -0.22705078 16.00708008 -0.1953125 13.76953125 C-0.18886719 12.96708984 -0.18242187 12.16464844 -0.17578125 11.33789062 C-0.15064453 10.08782227 -0.15064453 10.08782227 -0.125 8.8125 C-0.11597656 7.96751953 -0.10695313 7.12253906 -0.09765625 6.25195312 C-0.07410703 4.16784757 -0.03823647 2.08388783 0 0 Z " fill="#F7D112" transform="translate(342,141)"/>
<path d="M0 0 C4.62 0 9.24 0 14 0 C14 30.69 14 61.38 14 93 C9.38 93 4.76 93 0 93 C0 62.31 0 31.62 0 0 Z " fill="#FDD502" transform="translate(200,126)"/>
<path d="M0 0 C1.01586182 0.00717041 2.03172363 0.01434082 3.07836914 0.02172852 C7.0525788 0.0596209 11.02617209 0.12226479 15 0.1875 C15.92383484 0.2018811 16.84766968 0.21626221 17.79949951 0.2310791 C25.34577118 0.3488066 32.89164067 0.48348387 40.4375 0.625 C42.08141724 0.65420029 42.08141724 0.65420029 43.75854492 0.68399048 C46.90035539 0.74120246 50.04195652 0.80511853 53.18359375 0.87109375 C54.14398056 0.88782135 55.10436737 0.90454895 56.09385681 0.92178345 C56.97481522 0.94171356 57.85577362 0.96164368 58.76342773 0.98217773 C59.53629623 0.99772202 60.30916473 1.0132663 61.10545349 1.02928162 C63 1.1875 63 1.1875 65 2.1875 C63.62061695 6.21070056 61.98826618 9.13906738 59 12.1875 C55.90625 12.89453125 55.90625 12.89453125 52.5 13 C51.3759375 13.04769531 50.251875 13.09539062 49.09375 13.14453125 C43.89554734 13.21672851 38.71119768 13.11284663 33.515625 12.96875 C32.29223419 12.93545593 32.29223419 12.93545593 31.04412842 12.90148926 C28.44607144 12.83066767 25.84803581 12.75909374 23.25 12.6875 C21.48567844 12.63927327 19.72135554 12.59109561 17.95703125 12.54296875 C13.63800507 12.42504807 9.31899788 12.30645277 5 12.1875 C5 12.8475 5 13.5075 5 14.1875 C4.47535156 14.03152344 3.95070313 13.87554687 3.41015625 13.71484375 C-0.67277987 12.82149468 -4.8386229 12.78861773 -9.00390625 12.56640625 C-12 12.1875 -12 12.1875 -15 10.1875 C-18 4.85416667 -18 4.85416667 -18 2.1875 C-11.83841601 0.38323987 -6.39977121 -0.08851157 0 0 Z " fill="#FCD602" transform="translate(297,181.8125)"/>
<path d="M0 0 C0.33 0.66 0.66 1.32 1 2 C0.23447322 3.89717505 -0.53108565 5.79433717 -1.296875 7.69140625 C-2.44014413 11.4451399 -2.24266521 15.11735657 -2 19 C-1.34 19.33 -0.68 19.66 0 20 C-0.04640625 19.33613281 -0.0928125 18.67226562 -0.140625 17.98828125 C-0.43735763 10.72892938 -0.43735763 10.72892938 1.875 6.875 C4 5 4 5 6 5 C6 8.3 6 11.6 6 15 C6.66 15.33 7.32 15.66 8 16 C8.16435547 14.77023438 8.16435547 14.77023438 8.33203125 13.515625 C8.56986328 11.89914063 8.56986328 11.89914063 8.8125 10.25 C8.96332031 9.18265625 9.11414063 8.1153125 9.26953125 7.015625 C10.01795717 3.92586667 10.80738649 2.27545785 13 0 C13.66 0 14.32 0 15 0 C15.08132187 2.56314499 15.14064175 5.12368418 15.1875 7.6875 C15.21263672 8.40873047 15.23777344 9.12996094 15.26367188 9.87304688 C15.32695752 14.49289868 14.99146919 17.42650856 12 21 C9.00056176 23.17243264 5.88779889 25.02988091 2.71484375 26.9375 C-0.20267525 29.15397487 -1.0286029 30.52469113 -2 34 C-1.5153125 33.72285156 -1.030625 33.44570312 -0.53125 33.16015625 C4.43029937 30.4790113 8.32765582 29.09003721 14 29 C17.80040397 30.26680132 20.76616477 31.8438146 24.09375 34.06640625 C28.55758852 36.62721815 32.88768893 36.66551647 37.9375 36.75 C39.24944336 36.79447266 39.24944336 36.79447266 40.58789062 36.83984375 C42.72477877 36.90990566 44.86239023 36.95729051 47 37 C47 37.33 47 37.66 47 38 C46.14008705 38.01213028 46.14008705 38.01213028 45.26280212 38.02450562 C39.27630066 38.11080861 33.29012054 38.21032246 27.30395508 38.31738281 C25.0722393 38.35557883 22.84046393 38.39044781 20.60864258 38.421875 C17.39382686 38.46772929 14.17941808 38.52569037 10.96484375 38.5859375 C9.97290512 38.59748871 8.98096649 38.60903992 7.95896912 38.62094116 C2.60533621 38.73405234 -1.93161046 39.24591255 -7 41 C-6.95875 39.989375 -6.9175 38.97875 -6.875 37.9375 C-6.82489124 34.06110338 -6.82489124 34.06110338 -8 30.75 C-10.70378467 20.61080751 -8.58067944 13.77850553 -3.7265625 4.87109375 C-2 2 -2 2 0 0 Z " fill="#FAD705" transform="translate(284,142)"/>
<path d="M0 0 C11 0 11 0 15 2 C15.92673806 4.78021418 16.12855766 6.47233891 16.1328125 9.34375 C16.13474609 10.59478516 16.13474609 10.59478516 16.13671875 11.87109375 C16.13285156 12.73863281 16.12898438 13.60617188 16.125 14.5 C16.13080078 15.80130859 16.13080078 15.80130859 16.13671875 17.12890625 C16.13542969 17.96292969 16.13414062 18.79695313 16.1328125 19.65625 C16.13168457 20.41744141 16.13055664 21.17863281 16.12939453 21.96289062 C16 24 16 24 15 27 C9.57278752 30.66336842 7.23584765 30 0 30 C0 20.1 0 10.2 0 0 Z " fill="#81067A" transform="translate(239,140)"/>
<path d="M0 0 C5.68533969 1.64243147 5.68533969 1.64243147 7.375 3.5625 C9.69262246 5.61270449 12.01528609 5.36136298 14.9921875 5.625 C18.0875806 6.20312789 19.85099941 7.78384314 22 10 C22 10.66 22 11.32 22 12 C18.7 12 15.4 12 12 12 C11.85486198 16.24964127 11.76597963 20.49864635 11.6875 24.75 C11.64560547 25.9565625 11.60371094 27.163125 11.56054688 28.40625 C11.54443359 29.56640625 11.52832031 30.7265625 11.51171875 31.921875 C11.48553467 32.99018555 11.45935059 34.05849609 11.43237305 35.15917969 C11.7591608 38.20694813 11.7591608 38.20694813 14.390625 40.28710938 C15.25171875 40.85236328 16.1128125 41.41761719 17 42 C17.73863281 42.48984375 18.47726562 42.9796875 19.23828125 43.484375 C19.92277344 43.90203125 20.60726563 44.3196875 21.3125 44.75 C22.00988281 45.17796875 22.70726562 45.6059375 23.42578125 46.046875 C24.20501953 46.51867187 24.20501953 46.51867187 25 47 C24.01 47.495 24.01 47.495 23 48 C22.34 47.67 21.68 47.34 21 47 C13.33939036 46.23057253 13.33939036 46.23057253 6.375 48.9375 C4.65109707 50.42969333 4.65109707 50.42969333 3 52 C1.00041636 52.04080783 -1.00045254 52.04254356 -3 52 C-2.4225 51.0821875 -1.845 50.164375 -1.25 49.21875 C-0.49907635 47.97972598 0.25087201 46.74011052 1 45.5 C1.3815625 44.89929688 1.763125 44.29859375 2.15625 43.6796875 C5.0038642 38.89976367 5.39253126 35.54450398 5 30 C3.68 29.67 2.36 29.34 1 29 C1.66 28.01 2.32 27.02 3 26 C3.24055468 23.94290404 3.24055468 23.94290404 3.125 21.8125 C3.063125 19.9253125 3.063125 19.9253125 3 18 C3.66 18 4.32 18 5 18 C5.57655126 9.96152728 5.57655126 9.96152728 2 3 C1.34 2.67 0.68 2.34 0 2 C0 1.34 0 0.68 0 0 Z " fill="#FAD903" transform="translate(329,124)"/>
<path d="M0 0 C0 0.66 0 1.32 0 2 C-0.66 2 -1.32 2 -2 2 C-2.433125 2.86625 -2.433125 2.86625 -2.875 3.75 C-4 6 -4 6 -5.125 7.75 C-6.46160487 11.18698395 -6.12238184 14.32854467 -6 18 C-5.34 18 -4.68 18 -4 18 C-3.8046875 19.98567708 -3.609375 21.97135417 -3.4140625 23.95703125 C-3.07334609 26.29988142 -3.07334609 26.29988142 -1 29 C-2.98 29.99 -2.98 29.99 -5 31 C-5.61846186 36.81354152 -4.2421409 39.94503561 -1.24609375 44.91015625 C0.113603 47.19052541 1.11271906 49.49948097 2 52 C-0.3125 52.1875 -0.3125 52.1875 -3 52 C-4.5625 50.625 -4.5625 50.625 -6 49 C-9.35645756 46.86685271 -12.06869259 46.75844452 -16 46.8125 C-17.03125 46.81894531 -18.0625 46.82539063 -19.125 46.83203125 C-21.58068682 46.97550208 -23.65507755 47.2953959 -26 48 C-23.00157962 44.50184288 -19.96519784 42.88340437 -15.8046875 41.125 C-13.48232055 39.67729073 -13.01105636 38.53283 -12 36 C-11.69451967 33.42357044 -11.69451967 33.42357044 -11.734375 30.6484375 C-11.73179687 29.63265625 -11.72921875 28.616875 -11.7265625 27.5703125 C-11.73429687 26.51585937 -11.74203125 25.46140625 -11.75 24.375 C-11.74226563 23.3128125 -11.73453125 22.250625 -11.7265625 21.15625 C-11.73042969 19.63644531 -11.73042969 19.63644531 -11.734375 18.0859375 C-11.73663086 17.1582959 -11.73888672 16.2306543 -11.74121094 15.27490234 C-11.78345356 12.80144537 -11.78345356 12.80144537 -14 11 C-15.9931567 10.97624074 -15.9931567 10.97624074 -18.125 11.375 C-19.40375 11.58125 -20.6825 11.7875 -22 12 C-20.63016497 8.83884224 -20.0109362 8.0072908 -17 6 C-14.73828125 5.8046875 -14.73828125 5.8046875 -12.3125 5.875 C-11.10013672 5.90207031 -11.10013672 5.90207031 -9.86328125 5.9296875 C-8.94095703 5.96449219 -8.94095703 5.96449219 -8 6 C-7.731875 5.38125 -7.46375 4.7625 -7.1875 4.125 C-5.34286471 0.8240737 -3.74342643 0 0 0 Z " fill="#F7D505" transform="translate(312,124)"/>
<path d="M0 0 C0.33 0 0.66 0 1 0 C1.71673327 4.74988286 2.42866804 9.50045132 3.13623047 14.25170898 C3.37743584 15.86681367 3.61993477 17.48172573 3.86376953 19.09643555 C4.21469658 21.42186436 4.56091481 23.74795378 4.90625 26.07421875 C5.07030334 27.15107185 5.07030334 27.15107185 5.2376709 28.24967957 C5.77725888 31.91684217 6 35.26865548 6 39 C2.37 39 -1.26 39 -5 39 C-5.37098655 30.62497868 -3.94598173 22.65048212 -2.5 14.4375 C-2.25843119 13.03332052 -2.01754036 11.62902423 -1.77734375 10.22460938 C-1.19270402 6.8150244 -0.59891236 3.4071105 0 0 Z " fill="#821076" transform="translate(336,256)"/>
<path d="M0 0 C2.97 0 5.94 0 9 0 C8.91237 2.85552944 8.80540993 5.70818989 8.6875 8.5625 C8.65366211 9.76229492 8.65366211 9.76229492 8.61914062 10.98632812 C8.37907972 16.33313927 7.3992119 20.20800841 5 25 C4.01 24.67 3.02 24.34 2 24 C0.81603117 15.97649696 -0.28545428 8.13544686 0 0 Z " fill="#FAD705" transform="translate(316,152)"/>
<path d="M0 0 C0.77751114 -0.00189835 1.55502228 -0.00379669 2.35609436 -0.00575256 C4.92752141 -0.00945898 7.49866638 0.00124122 10.07006836 0.01245117 C11.85460883 0.01364308 13.63914994 0.01409611 15.4236908 0.01383972 C19.16368537 0.01540431 22.90358419 0.02369271 26.64355469 0.03710938 C31.44455318 0.05411145 36.24544652 0.05792334 41.0464716 0.05716419 C44.73096221 0.05743571 48.4154297 0.0629138 52.09991264 0.07016563 C53.87059797 0.07335404 55.64128591 0.07532011 57.41197395 0.07605934 C59.88276792 0.07822039 62.35344893 0.08695917 64.82421875 0.09765625 C65.56037415 0.09720306 66.29652954 0.09674988 67.05499268 0.09628296 C72.11845419 0.12844096 72.11845419 0.12844096 74.34741211 1.24291992 C74.34741211 1.90291992 74.34741211 2.56291992 74.34741211 3.24291992 C73.49107933 3.22412781 73.49107933 3.22412781 72.6174469 3.20495605 C66.53116419 3.07193821 60.44480683 2.94280733 54.35839844 2.81567383 C52.10414656 2.7681151 49.84991355 2.71965071 47.59570312 2.67016602 C35.2934401 2.40075333 22.99262861 2.18976835 10.68725586 2.14916992 C9.1535006 2.13944153 9.1535006 2.13944153 7.58876038 2.1295166 C2.09022886 2.12607473 -3.23590705 2.24294157 -8.65258789 3.24291992 C-8.98258789 3.90291992 -9.31258789 4.56291992 -9.65258789 5.24291992 C-9.98258789 4.25291992 -10.31258789 3.26291992 -10.65258789 2.24291992 C-6.98136752 -0.20456032 -4.24319039 -0.03248008 0 0 Z " fill="#792E52" transform="translate(287.652587890625,180.757080078125)"/>
<path d="M0 0 C0 0.66 0 1.32 0 2 C-0.66 2 -1.32 2 -2 2 C-2.433125 2.86625 -2.433125 2.86625 -2.875 3.75 C-4 6 -4 6 -5.0625 7.75 C-6.01515752 10.03637805 -6.18498991 11.67696306 -6.375 14.125 C-7 18 -7 18 -9.0625 19.5 C-10.0215625 19.7475 -10.0215625 19.7475 -11 20 C-11.12375 18.88625 -11.2475 17.7725 -11.375 16.625 C-11.6465813 12.96896323 -11.6465813 12.96896323 -14 11 C-15.9931567 10.97624074 -15.9931567 10.97624074 -18.125 11.375 C-19.40375 11.58125 -20.6825 11.7875 -22 12 C-20.63016497 8.83884224 -20.0109362 8.0072908 -17 6 C-14.73828125 5.8046875 -14.73828125 5.8046875 -12.3125 5.875 C-11.10013672 5.90207031 -11.10013672 5.90207031 -9.86328125 5.9296875 C-8.94095703 5.96449219 -8.94095703 5.96449219 -8 6 C-7.731875 5.38125 -7.46375 4.7625 -7.1875 4.125 C-5.34286471 0.8240737 -3.74342643 0 0 0 Z " fill="#EEC80A" transform="translate(312,124)"/>
<path d="M0 0 C0.66 0.33 1.32 0.66 2 1 C2 2.32 2 3.64 2 5 C3.32 5 4.64 5 6 5 C6.375 8.1875 6.375 8.1875 6 12 C4.18811972 14.1403498 2.34198833 15.38988302 0 17 C-5.88183807 11.9059081 -5.88183807 11.9059081 -6.375 8.125 C-6.25125 7.42375 -6.1275 6.7225 -6 6 C-5.38125 5.7525 -4.7625 5.505 -4.125 5.25 C-1.64931313 3.79371361 -1.04874998 2.62187494 0 0 Z " fill="#F6D307" transform="translate(320,125)"/>
<path d="M0 0 C5.68533969 1.64243147 5.68533969 1.64243147 7.375 3.5625 C9.69262246 5.61270449 12.01528609 5.36136298 14.9921875 5.625 C18.0875806 6.20312789 19.85099941 7.78384314 22 10 C22 10.66 22 11.32 22 12 C18.7 12 15.4 12 12 12 C11.67 14.64 11.34 17.28 11 20 C10.67 20 10.34 20 10 20 C10 17.69 10 15.38 10 13 C8.68 13.33 7.36 13.66 6 14 C5.62875 12.14375 5.62875 12.14375 5.25 10.25 C4.32160467 6.44223364 2.99531144 4.59593658 0 2 C0 1.34 0 0.68 0 0 Z " fill="#EBC50D" transform="translate(329,124)"/>
<path d="M0 0 C3.875 0.875 3.875 0.875 5 2 C5.12535652 3.60048202 5.17574787 5.20715928 5.1875 6.8125 C5.20167969 7.68519531 5.21585937 8.55789062 5.23046875 9.45703125 C4.99010406 12.10919085 4.34187309 13.72464999 3 16 C-0.16115776 14.63016497 -0.9927092 14.0109362 -3 11 C-3.3468602 7.18453778 -3.53366895 4.86721204 -1.5 1.5625 C-1.005 1.046875 -0.51 0.53125 0 0 Z " fill="#F7D508" transform="translate(319,202)"/>
<path d="M0 0 C3.1875 0.0625 3.1875 0.0625 7 1 C8.60577059 2.69313117 9.75748772 4.40837546 10.95703125 6.40625 C11.92013774 8.16987255 11.92013774 8.16987255 14 9 C14 9.66 14 10.32 14 11 C10.75 11.75 10.75 11.75 7 12 C2.62744109 9.2064207 1.5721271 4.71638129 0 0 Z " fill="#F7D50C" transform="translate(325,201)"/>
<path d="M0 0 C-0.66666667 1.66666667 -1.33333333 3.33333333 -2 5 C-2.33 5.9075 -2.66 6.815 -3 7.75 C-4 10 -4 10 -6 11 C-8.6723621 11.13415472 -11.32250488 11.04318541 -14 11 C-14 10.34 -14 9.68 -14 9 C-13.01 8.34 -12.02 7.68 -11 7 C-9.98377342 5.00819591 -8.98287008 3.00847365 -8 1 C-5.29120665 -0.35439668 -2.99066732 -0.06501451 0 0 Z " fill="#F4D30E" transform="translate(316,201)"/>
<path d="M0 0 C-1.45314886 3.39068068 -3.0405408 5.76040926 -6 8 C-9.75 8.25 -9.75 8.25 -13 8 C-12.875 6.25 -12.875 6.25 -12 4 C-7.95345317 0.61219335 -5.26424467 -0.50135664 0 0 Z " fill="#F6D709" transform="translate(306,200)"/>
<path d="M0 0 C4.70941985 0.46170783 8.24046771 1.01448906 12 4 C12.8125 6.1875 12.8125 6.1875 13 8 C7.02087947 8.71749446 7.02087947 8.71749446 4.19921875 6.734375 C2.65553517 5.21648088 1.25050109 3.76810776 0 2 C0 1.34 0 0.68 0 0 Z " fill="#F4D605" transform="translate(335,200)"/>
<path d="M0 0 C0.66 0 1.32 0 2 0 C2.125 5.75 2.125 5.75 1 8 C0.77377919 9.70363822 0.59111527 11.41328701 0.4375 13.125 C0.31181641 14.49011719 0.31181641 14.49011719 0.18359375 15.8828125 C0.12300781 16.58148438 0.06242187 17.28015625 0 18 C-0.99 17.67 -1.98 17.34 -3 17 C-3.40368295 10.54107286 -2.5915262 5.93891422 0 0 Z " fill="#78136E" transform="translate(284,144)"/>
<path d="M0 0 C3.63 0 7.26 0 11 0 C11 1.98 11 3.96 11 6 C7.7 6 4.4 6 1 6 C0.67 4.02 0.34 2.04 0 0 Z " fill="#F4DA05" transform="translate(315,144)"/>
<path d="M0 0 C1.74506836 0.00966797 1.74506836 0.00966797 3.52539062 0.01953125 C4.74033203 0.03628906 5.95527344 0.05304688 7.20703125 0.0703125 C8.43357422 0.07933594 9.66011719 0.08835938 10.92382812 0.09765625 C13.9559242 0.12125233 16.98763063 0.15417409 20.01953125 0.1953125 C20.01953125 0.5253125 20.01953125 0.8553125 20.01953125 1.1953125 C18.74078125 1.25589844 17.46203125 1.31648437 16.14453125 1.37890625 C14.43619015 1.46338466 12.72785724 1.54802891 11.01953125 1.6328125 C10.18035156 1.67212891 9.34117187 1.71144531 8.4765625 1.75195312 C3.28375386 2.01360627 -1.85199311 2.3153127 -6.98046875 3.1953125 C-7.31046875 3.8553125 -7.64046875 4.5153125 -7.98046875 5.1953125 C-8.31046875 4.2053125 -8.64046875 3.2153125 -8.98046875 2.1953125 C-5.48710057 -0.13359962 -4.1203901 -0.04019893 0 0 Z " fill="#5B0D58" transform="translate(285.98046875,180.8046875)"/>
<path d="M0 0 C0.33 0 0.66 0 1 0 C1 7.92 1 15.84 1 24 C1.99 24 2.98 24 4 24 C3.34 25.98 2.68 27.96 2 30 C1.34 30 0.68 30 0 30 C0 20.1 0 10.2 0 0 Z " fill="#8A0E78" transform="translate(156,126)"/>
<path d="M0 0 C0.66 0.33 1.32 0.66 2 1 C-2.08367486 4.89450888 -5.35260112 7.44286847 -11.15625 7.3671875 C-12.94022346 7.23601298 -14.72202546 7.07140416 -16.5 6.875 C-17.4178125 6.80023438 -18.335625 6.72546875 -19.28125 6.6484375 C-21.52514595 6.46144617 -23.76181466 6.24492142 -26 6 C-26 5.67 -26 5.34 -26 5 C-25.11477661 4.97812622 -25.11477661 4.97812622 -24.21166992 4.95581055 C-21.53628771 4.88131156 -18.86215108 4.78466005 -16.1875 4.6875 C-14.7943457 4.65366211 -14.7943457 4.65366211 -13.37304688 4.61914062 C-12.48037109 4.58369141 -11.58769531 4.54824219 -10.66796875 4.51171875 C-9.84578857 4.48553467 -9.0236084 4.45935059 -8.17651367 4.43237305 C-5.53406635 3.90744044 -4.78151693 2.95352976 -3 1 C-2.01 0.67 -1.02 0.34 0 0 Z " fill="#CB9E12" transform="translate(338,173)"/>
<path d="M0 0 C0.33 0.66 0.66 1.32 1 2 C0.273668 3.94789035 -0.45777551 5.8942498 -1.23046875 7.82421875 C-2.31053545 10.8780114 -2.6651047 13.78500511 -3 17 C-3.66 15.68 -4.32 14.36 -5 13 C-5.66 13 -6.32 13 -7 13 C-5.58832253 7.73829306 -3.25149768 4.27828642 0 0 Z " fill="#F0D715" transform="translate(284,142)"/>
<path d="M0 0 C0.66 0 1.32 0 2 0 C3.97094808 4.92737019 4.1799928 8.78020872 4 14 C3.34 14 2.68 14 2 14 C0.02905192 9.07262981 -0.1799928 5.21979128 0 0 Z " fill="#932383" transform="translate(194,282)"/>
<path d="M0 0 C0.99 0 1.98 0 3 0 C4.1845131 3.55353929 4.26641894 6.27013478 4 10 C3.01 10.99 2.02 11.98 1 13 C0.67 8.71 0.34 4.42 0 0 Z " fill="#750E6C" transform="translate(356,150)"/>
<path d="M0 0 C3.67420866 0.30618405 4.78135513 0.75771784 7.3125 3.5625 C8.1478125 4.7690625 8.1478125 4.7690625 9 6 C7.02 6.99 7.02 6.99 5 8 C2.525 4.04 2.525 4.04 0 0 Z " fill="#80156E" transform="translate(332,202)"/>
<path d="M0 0 C4.3573226 1.47130373 7.71934134 3.83080615 11.3125 6.625 C11.86228516 7.04523437 12.41207031 7.46546875 12.97851562 7.8984375 C14.32292168 8.92720039 15.66201413 9.9629009 17 11 C16.01 11.33 15.02 11.66 14 12 C11.40625 10.234375 11.40625 10.234375 8.5 7.75 C7.5409375 6.94046875 6.581875 6.1309375 5.59375 5.296875 C3.65599823 3.5809141 1.79179901 1.86443952 0 0 Z " fill="#7A0870" transform="translate(351,40)"/>
<path d="M0 0 C3.39417765 3.12621626 5.6062718 5.56541027 7 10 C5.68 10.33 4.36 10.66 3 11 C2.01 7.37 1.02 3.74 0 0 Z " fill="#E8D015" transform="translate(356,142)"/>
<path d="M0 0 C0 2.97 0 5.94 0 9 C-1.32 8.34 -2.64 7.68 -4 7 C-4 5.02 -4 3.04 -4 1 C-1 0 -1 0 0 0 Z " fill="#780E6C" transform="translate(352,149)"/>
<path d="M0 0 C0.66 0 1.32 0 2 0 C2.33 5.28 2.66 10.56 3 16 C2.67 16 2.34 16 2 16 C2 14.02 2 12.04 2 10 C1.34 10 0.68 10 0 10 C0 6.7 0 3.4 0 0 Z " fill="#86226D" transform="translate(298,144)"/>
<path d="M0 0 C2 1 2 1 2.6328125 2.84765625 C2.79523438 3.57855469 2.95765625 4.30945313 3.125 5.0625 C3.29257812 5.79597656 3.46015625 6.52945313 3.6328125 7.28515625 C3.75398438 7.85105469 3.87515625 8.41695312 4 9 C3.34 9 2.68 9 2 9 C1.34 9.66 0.68 10.32 0 11 C-0.19491452 9.54263913 -0.38069358 8.08405407 -0.5625 6.625 C-0.66691406 5.81289062 -0.77132813 5.00078125 -0.87890625 4.1640625 C-1 2 -1 2 0 0 Z " fill="#841C68" transform="translate(324,200)"/>
<path d="M0 0 C0 2.31 0 4.62 0 7 C-1.98 7.99 -1.98 7.99 -4 9 C-4 6.36 -4 3.72 -4 1 C-2 0 -2 0 0 0 Z " fill="#F0D113" transform="translate(305,135)"/>
<path d="M0 0 C2.97 0 5.94 0 9 0 C5.65094547 3.34905453 3.50621146 3.89470285 -1 5 C-0.67 3.35 -0.34 1.7 0 0 Z " fill="#770E70" transform="translate(283,171)"/>
<path d="M0 0 C-0.57621094 0.28617188 -1.15242188 0.57234375 -1.74609375 0.8671875 C-3.18218223 1.58896507 -4.61261796 2.32218296 -6.03515625 3.0703125 C-6.70417969 3.41835937 -7.37320312 3.76640625 -8.0625 4.125 C-8.73410156 4.47820312 -9.40570313 4.83140625 -10.09765625 5.1953125 C-12 6 -12 6 -15 6 C-9.5281786 1.36084707 -7.4286258 -0.13756714 0 0 Z " fill="#701160" transform="translate(346,170)"/>
<path d="M0 0 C0.66 0 1.32 0 2 0 C2.125 5.75 2.125 5.75 1 8 C0.01 8 -0.98 8 -2 8 C-1.125 2.25 -1.125 2.25 0 0 Z " fill="#831566" transform="translate(284,144)"/>
<path d="M0 0 C5.75 1.625 5.75 1.625 8 5 C3.71 4.34 -0.58 3.68 -5 3 C-3.68 2.34 -2.36 1.68 -1 1 C-0.67 0.67 -0.34 0.34 0 0 Z " fill="#DFB623" transform="translate(346,167)"/>
<path d="M0 0 C0.33 0 0.66 0 1 0 C1.25 7.625 1.25 7.625 -1 11 C-1.99 11 -2.98 11 -4 11 C-3.71125 10.484375 -3.4225 9.96875 -3.125 9.4375 C-1.71219973 6.37643275 -0.8751483 3.25055082 0 0 Z " fill="#6B096C" transform="translate(299,154)"/>
<path d="M0 0 C0 0.66 0 1.32 0 2 C-0.66 2 -1.32 2 -2 2 C-2.433125 2.928125 -2.433125 2.928125 -2.875 3.875 C-4 6 -4 6 -6 8 C-6.33 6.35 -6.66 4.7 -7 3 C-3.375 0 -3.375 0 0 0 Z " fill="#E9C211" transform="translate(312,124)"/>
<path d="M0 0 C4 2 4 2 4.75 4.125 C4.8325 4.74375 4.915 5.3625 5 6 C4.34 5.67 3.68 5.34 3 5 C2.67 6.98 2.34 8.96 2 11 C1.67 11 1.34 11 1 11 C0.67 7.37 0.34 3.74 0 0 Z " fill="#E4C01D" transform="translate(342,141)"/>
<path d="M0 0 C1.65 0 3.3 0 5 0 C4.814375 0.721875 4.62875 1.44375 4.4375 2.1875 C3.98004693 5.12826973 4.26483643 7.14103058 5 10 C2.35534962 6.8745041 1.15585285 3.91211733 0 0 Z " fill="#EBCC1B" transform="translate(325,201)"/>
<path d="M0 0 C0.66 0 1.32 0 2 0 C2.125 5.75 2.125 5.75 1 8 C0.34 8 -0.32 8 -1 8 C-1.04241723 5.66705225 -1.04092937 3.33297433 -1 1 C-0.67 0.67 -0.34 0.34 0 0 Z " fill="#7B1176" transform="translate(291,150)"/>
<path d="M0 0 C2.5 1.375 2.5 1.375 5 3 C5 3.66 5 4.32 5 5 C2.03 4.67 -0.94 4.34 -4 4 C-2.68 2.68 -1.36 1.36 0 0 Z " fill="#E3C120" transform="translate(346,131)"/>
<path d="M0 0 C0.36923077 5.53846154 0.36923077 5.53846154 -1.5 7.875 C-2.2425 8.431875 -2.2425 8.431875 -3 9 C-3 6.36 -3 3.72 -3 1 C-1 0 -1 0 0 0 Z " fill="#FBE303" transform="translate(297,145)"/>
<path d="M0 0 C0 0.33 0 0.66 0 1 C-3.07617188 1.29296875 -3.07617188 1.29296875 -6.15234375 1.5859375 C-6.76207031 1.72257813 -7.37179687 1.85921875 -8 2 C-8.33 2.66 -8.66 3.32 -9 4 C-9.33 3.01 -9.66 2.02 -10 1 C-6.1496895 -1.56687367 -4.41430237 -0.83288724 0 0 Z " fill="#872C5B" transform="translate(287,182)"/>
<path d="M0 0 C5.75 1.625 5.75 1.625 8 5 C6.25 5.75 6.25 5.75 4 6 C1.75 4.1875 1.75 4.1875 0 2 C0 1.34 0 0.68 0 0 Z " fill="#EDD015" transform="translate(329,124)"/>
<path d="M0 0 C1.485 0.99 1.485 0.99 3 2 C3.1875 4.625 3.1875 4.625 3 7 C2.01 7 1.02 7 0 7 C0 4.69 0 2.38 0 0 Z " fill="#FEE201" transform="translate(344,145)"/>
<path d="M0 0 C1.67542976 0.28604898 3.34385343 0.61781233 5 1 C4.01 1.33 3.02 1.66 2 2 C2 2.66 2 3.32 2 4 C0.35 4.33 -1.3 4.66 -3 5 C-1.125 1.125 -1.125 1.125 0 0 Z " fill="#EFD115" transform="translate(293,131)"/>
<path d="M0 0 C0.99 0.33 1.98 0.66 3 1 C2.01 2.485 2.01 2.485 1 4 C0.60612212 6.32387947 0.26513915 8.65793749 0 11 C-0.33 11 -0.66 11 -1 11 C-1.02688151 9.35425434 -1.04634123 7.70838587 -1.0625 6.0625 C-1.07410156 5.14597656 -1.08570313 4.22945312 -1.09765625 3.28515625 C-1 1 -1 1 0 0 Z " fill="#790373" transform="translate(316,202)"/>
<path d="M0 0 C2.125 0.375 2.125 0.375 4 1 C3.0409375 1.5878125 3.0409375 1.5878125 2.0625 2.1875 C-0.43778819 4.38472296 -0.64950425 5.75791433 -1 9 C-1.33 9 -1.66 9 -2 9 C-2.125 5.625 -2.125 5.625 -2 2 C-1.34 1.34 -0.68 0.68 0 0 Z " fill="#7F0F67" transform="translate(308,153)"/>
<path d="M0 0 C1.32 0 2.64 0 4 0 C3.34 1.98 2.68 3.96 2 6 C1.34 6 0.68 6 0 6 C0 4.02 0 2.04 0 0 Z " fill="#770961" transform="translate(156,150)"/>
<path d="M0 0 C0.33 0 0.66 0 1 0 C1.1875 2.875 1.1875 2.875 1 6 C0.01 6.66 -0.98 7.32 -2 8 C-2 6.02 -2 4.04 -2 2 C-1.34 2 -0.68 2 0 2 C0 1.34 0 0.68 0 0 Z " fill="#903A50" transform="translate(332,144)"/>
<path d="M0 0 C-0.33 2.97 -0.66 5.94 -1 9 C-1.33 9 -1.66 9 -2 9 C-2.12375 8.195625 -2.2475 7.39125 -2.375 6.5625 C-2.684375 5.2940625 -2.684375 5.2940625 -3 4 C-3.66 3.67 -4.32 3.34 -5 3 C-2.25 0 -2.25 0 0 0 Z " fill="#D5AF28" transform="translate(290,147)"/>
</svg>
